<?xml version="1.0" encoding="utf-8"?>
<!-- Generator: Adobe Illustrator 25.4.1, SVG Export Plug-In . SVG Version: 6.00 Build 0)  -->
<svg version="1.1" id="Layer_1" xmlns="http://www.w3.org/2000/svg" xmlns:xlink="http://www.w3.org/1999/xlink" x="0px" y="0px"
	 viewBox="0 0 808.2 327.7" style="enable-background:new 0 0 808.2 327.7;" xml:space="preserve">
<style type="text/css">
	.st0{fill:#8E629F;}
</style>
<g id="Layer_2_00000140731416945786065970000002544197489995000492_">
	<g id="Layer_1-2">
		<path class="st0" d="M248.8,305c-1.7,9.5,23.1,23.9,25.1,12.9c1.5-8,17.8-103.6,22.1-131.6c8.9-2.5,50.4-11.1,62.1-12.7
			c3-0.4,4.1-2,4.2-4c8.5,1.7,17,3.1,25.6,4.3l-92.6,55.8c-9.6,6.6,11.9,26,20.6,19.3c21.4-16.4,80.4-48.4,80.4-48.4
			c-2.2,10.3-4.3,20.6-6.6,30.8c-2.1,9.2,23.8,19.2,25.1,13c3.6-16.6,7.1-33.2,10.7-49.8c3.3,1.5,6.8,2.3,9.7,0.8
			c1.8-0.9,3.6-1.8,5.4-2.6c2.7-1.3-10.9,44.5-11.5,51c-1.5,16,22,28,26.2,25.6l74-42.6c0.3,9.5,19.1,19.9,29.6,16
			c5.4-2,26.8-22.6,33.8-28c-0.7,5-1.3,10.1-2,15.1c0.4,8.8,14.5,23.6,19.7,19.9c19.2-14,38.4-29.3,59.2-41c0,0.8-0.4,16.2,2.7,22.5
			c2.3,4.8,15,17.9,22.1,11.5c28.3-25.6,60.8-46.1,95.7-61.5c10.2-4.5-9.3-24.7-18.5-20.7c-27.4,12.2-53.2,27.5-77,45.7
			c0.1-1.9,0.6-8.2,0.7-9.5c2.5-0.9,5-1.7,7.6-2.5c2.2-0.7,2.4-3.4,2.6-5.4c0.3-3.2-5.3-11.8-8.7-12l1.1-14.7
			c23.9-7.4,48.6-12.3,73.5-14.4c6.3-0.5,5.4-7.2,2.7-11.2c-3.3-5-10.2-10.9-16.7-10.4c-19.4,1.6-38.7,4.8-57.6,9.5l2.7-36.1
			c30.6-8.8,62.2-13.8,94-14.8c6.4-0.2,5.3-7.4,2.7-11.2c-3.4-5.1-10-10.6-16.6-10.4c-26.9,0.9-53.6,4.5-79.8,10.8
			c0.2-8.3-21.9-14.9-22.4-8.4l-1.1,14.7c-14,4.2-27.8,9.3-41.3,15c1.3-7.5,9.5-55.9,12.4-72.6c1.6-9.5-23.2-23.8-25.1-13
			c-9.7,56.2-19.4,112.5-27.5,169c-14.7,7.8-28.1,18.2-40.6,29.1c0.8-5.7,25.4-100,28.8-114c2.5-10.4-8.5-19.1-17.8-22.6
			c-8.5-3.2-66.2,20.6-77,25.2c1-4.4,2.3-8.7,3.1-13.2c1.5-8.4-15.8-16.2-18.2-16.6c10.5-1.3,64.8-5.4,81.5-5.6
			c6.7-0.1-2.2-20.2-16.2-20.5c-27.3-0.6-56.4,2.3-83.5,5.7c0.7-0.7,1-4.3,1.7-8.9c0.9-5.5-23.4-13.7-25.9-8.4
			c-1.7,3.6-4.3,18.5-5.1,21.8c-21.6,3.6-94,18-113.8,28.5c-2,1.1,9.9,23.1,20.6,19.3c28.5-10.2,58.1-17.4,87.9-23.3
			c-0.8,3.8-12.5,58.2-17.5,81.7c-2-0.3-3.9-0.4-6-0.6c-12.9-1.1-93.7-18.6-94.3-18.8c21-13.5,86.4-20,105.1-19.5
			c5.7,0.2-6.6-18-17.3-18.5c-29.2-1.4-58.6,0.9-86.3,9.9c0.1-0.7,3.8-21.1,4-30.7c0.7-24.6-20.5-46.1-28.3-34.9
			s-15.5,22.7-22.3,34.6c-3.2-1.6-6.9-2.5-10.2-1.2c-5.7,2.3-11.1,5.4-16,9.2c-4-3.1-8.9-5-13.4-4.9c-15.2,0.5-30.4,1.6-45.6,3.6
			c-2-2-4.3-3.7-6.9-5c-4-1.9-11.8-4.7-13.4,1.5c-0.6,2.3-1.2,4.6-1.9,7c-34.5,6-112.1,25.7-144.3,50.3c-8.6,6.6,12,24,20.6,19.3
			c36.7-20,76-35,116.7-44.5c-7.7,27.3-15.9,54.4-24.6,81.4l-4.1,4.3c-1.5,1.6-0.3,5.2,0.5,6.7l0,0c-2,6-15.1,44.4-19.7,57.6
			c-3.6,10.3,22.9,20.1,25.1,13c6.8-21.4,15.2-44.5,21.7-63.7c17.2-14.2,81-77.2,83.8-80.4c-9.3,21.2-19.7,42-28.5,63.3
			c-4.4,2.2-8.8,4.4-13.2,6.7c-5.2,2.8-1.1,9.6,5,14.6c-2.9,8.3-5,16.8-7.7,25.2c-3.4,10.4,21.1,22.1,24.4,14.8
			c7.1-15.8,15.5-31.1,22.4-47c10.9-5,35-14.4,35.9-14.7C264.7,212.8,249.1,303.2,248.8,305z M164.9,149c1.4-4.7,9.2-32.3,11.7-41.4
			c4.1-0.7,24.8-3.4,30.9-4C206.6,104.6,171.1,142.4,164.9,149z M278.2,123.8c-2.1,2.6-2.8,6-2,9.2c0.1,0.5-3.3,27.2-4.5,35
			c-8.7,2.6-17.3,5.4-25.8,8.5c10.9-25.6,35.5-76.2,35.7-76.5C280.5,107.9,279.3,115.9,278.2,123.8L278.2,123.8z M299.8,160.7
			c0.4-2.6,0.7-5.1,1.1-7.7l4.7,1.6c3.1,1,6.1,2,9.2,3C309.8,158.6,304.8,159.6,299.8,160.7L299.8,160.7z M448.2,160.6
			c-5.7,2.5-11.3,5.1-16.9,7.7c2.4-11.4,4.9-22.8,7.3-34.1l0.1,0.1c3.3,3,8.9,7,14.1,6.9L448.2,160.6z M442,118
			c2.3-10.9,4.6-21.8,7-32.7c1.1-5.1,2.2-10.3,3.3-15.4c6.3-1,12.5-1.9,18.8-2.7c-1,0.7-1.8,1.8-2,3l-9.2,39.7
			C454,112.6,448,115.4,442,118L442,118z M532.2,194.3c-0.5,0.1-49.4,28.2-73.4,42c0.2-0.9,11.9-51.6,13.4-57.9
			c17.2-7.5,34.7-14.6,52.3-21.1c2.2-0.8,2.5-3.6,2-5.4c-0.6-2.8-3.1-5.9-5.2-7.7c-4.4-3.9-11.4-8.4-17.5-6.1
			c-8.2,3-16.4,6.2-24.5,9.5l4.6-19.6c16.9-7.5,71.2-29.5,71.4-29.6C554.2,101.6,532.5,192.5,532.2,194.3L532.2,194.3z M674.7,143.1
			c-9.2,3-18.3,6.4-27.2,10.1c-10.2,4.3,9.2,24.6,18.5,20.7c2.2-0.9,4.4-1.8,6.6-2.7l-0.5,6.8c-18.3,7.4-35.2,18.2-51.4,29.9
			c-0.1-1.7,1.3-9.6,1.6-11.9c3.4-1.7,19.3-12,21.1-13.9c6.6-3.9-9.8-16.6-17.1-13.3c2.5-16.7,5.2-33.3,7.9-50
			c3.8,2.4,8,3.7,10.9,2.3c10.6-4.9,21.3-9.3,32.2-13.3C676.5,119.6,675.6,131.3,674.7,143.1z"/>
	</g>
</g>
</svg>
